<svg version="1.1" viewBox="0.0 0.0 960.0 720.0" fill="none" stroke="none" stroke-linecap="square" stroke-miterlimit="10" xmlns:xlink="http://www.w3.org/1999/xlink" xmlns="http://www.w3.org/2000/svg"><clipPath id="p.0"><path d="m0 0l960.0 0l0 720.0l-960.0 0l0 -720.0z" clip-rule="nonzero"/></clipPath><g clip-path="url(#p.0)"><path fill="#000000" fill-opacity="0.0" d="m0 0l960.0 0l0 720.0l-960.0 0z" fill-rule="evenodd"/><path fill="#000000" d="m216.76903 387.41733l518.86615 0l0 226.77164l-518.86615 0z" fill-rule="evenodd"/><path stroke="#000000" stroke-width="1.0" stroke-linejoin="round" stroke-linecap="butt" d="m216.76903 387.41733l518.86615 0l0 226.77164l-518.86615 0z" fill-rule="evenodd"/><path fill="#000000" d="m269.2966 197.8084l81.98425 0l0 280.56696l-81.98425 0z" fill-rule="evenodd"/><path stroke="#000000" stroke-width="1.0" stroke-linejoin="round" stroke-linecap="butt" d="m269.2966 197.8084l81.98425 0l0 280.56696l-81.98425 0z" fill-rule="evenodd"/><path fill="#000000" d="m382.66403 219.71654l81.98425 0l0 280.56696l-81.98425 0z" fill-rule="evenodd"/><path stroke="#000000" stroke-width="1.0" stroke-linejoin="round" stroke-linecap="butt" d="m382.66403 219.71654l81.98425 0l0 280.56696l-81.98425 0z" fill-rule="evenodd"/><path fill="#000000" d="m320.1137 83.24984l0 0c-3.9665527 -12.918198 9.056427 -25.70642 33.542816 -32.938168c24.48639 -7.231743 56.141785 -7.6387177 81.53366 -1.0482216l0 0c8.994568 -7.5111732 25.457275 -12.697121 44.408447 -13.989193c18.951172 -1.2920723 38.164917 1.4614868 51.82953 7.427784l0 0c7.6622314 -6.810112 22.707092 -11.385637 39.79596 -12.1029415c17.088928 -0.7173042 33.803284 2.5251293 44.211975 8.576715l0 0c13.8428955 -7.2187004 35.86737 -10.258074 56.543213 -7.802965c20.675842 2.4551067 36.28955 9.963739 40.08496 19.276865l0 0c16.95996 2.0501442 31.08722 7.261875 38.73175 14.288654c7.6445923 7.026779 8.05658 15.179291 1.1294556 22.351189l0 0c16.700562 9.632645 20.6073 22.468025 10.262146 33.71621c-10.345093 11.248184 -33.387817 19.219254 -60.52893 20.938553c-0.19128418 10.556824 -13.255615 20.243637 -34.15741 25.326721c-20.901794 5.083069 -46.377136 4.768692 -66.60675 -0.82199097l0 0c-8.61676 12.643616 -32.869995 21.94667 -62.281494 23.889893c-29.411469 1.9432373 -58.708557 -3.8217316 -75.23386 -14.804199l0 0c-20.256561 5.4132996 -44.562744 6.972687 -67.43555 4.3264313c-22.872833 -2.6462708 -42.38559 -9.275299 -54.136627 -18.391708l0 0c-20.699646 1.0734711 -40.71335 -3.6792908 -50.108368 -11.899536c-9.39505 -8.220245 -6.171417 -18.158066 8.070984 -24.881363l0 0c-18.4646 -4.8162384 -27.886383 -14.373268 -23.352203 -23.68747c4.5341797 -9.314201 21.996826 -16.274933 43.28189 -17.252457z" fill-rule="evenodd"/><path fill="#000000" fill-opacity="0.0" d="m299.77487 124.68765l0 0c8.713501 2.2727966 18.779663 3.3037949 28.846893 2.9545593m13.185944 33.82715c4.3292847 -0.22451782 8.572784 -0.6999512 12.621124 -1.4140625m108.94498 15.47876c-3.0449219 -2.0236359 -5.5942993 -4.1860504 -7.6046753 -6.450409m145.12527 -2.635666l0 0c1.5709839 -2.3051147 2.5888062 -4.677582 3.03656 -7.07782m97.723816 -17.426025c0.20367432 -11.239365 -14.20105 -21.530243 -37.026917 -26.4524m87.29321 -28.201172c-3.6965332 3.8272095 -9.339783 7.2222824 -16.487244 9.919014m-23.370483 -46.55986l0 0c0.6298218 1.5455132 0.9213257 3.1142578 0.87042236 4.68449m-97.49695 -16.157925l0 0c-3.453125 1.8007088 -6.2980957 3.812973 -8.446228 5.974144m-75.56256 -2.4487038l0 0c-1.84021 1.6355667 -3.2143555 3.3662796 -4.0907593 5.1522675m-92.14859 1.409275l0 0c5.372925 1.3945427 10.343567 3.0730286 14.802826 4.998577m-129.8778 28.987995l0 0c0.5466919 1.7804565 1.410492 3.538971 2.583313 5.2590714" fill-rule="evenodd"/><path stroke="#000000" stroke-width="1.0" stroke-linejoin="round" stroke-linecap="butt" d="m320.1137 83.24984l0 0c-3.9665527 -12.918198 9.056427 -25.70642 33.542816 -32.938168c24.48639 -7.231743 56.141785 -7.6387177 81.53366 -1.0482216l0 0c8.994568 -7.5111732 25.457275 -12.697121 44.408447 -13.989193c18.951172 -1.2920723 38.164917 1.4614868 51.82953 7.427784l0 0c7.6622314 -6.810112 22.707092 -11.385637 39.79596 -12.1029415c17.088928 -0.7173042 33.803284 2.5251293 44.211975 8.576715l0 0c13.8428955 -7.2187004 35.86737 -10.258074 56.543213 -7.802965c20.675842 2.4551067 36.28955 9.963739 40.08496 19.276865l0 0c16.95996 2.0501442 31.08722 7.261875 38.73175 14.288654c7.6445923 7.026779 8.05658 15.179291 1.1294556 22.351189l0 0c16.700562 9.632645 20.6073 22.468025 10.262146 33.71621c-10.345093 11.248184 -33.387817 19.219254 -60.52893 20.938553c-0.19128418 10.556824 -13.255615 20.243637 -34.15741 25.326721c-20.901794 5.083069 -46.377136 4.768692 -66.60675 -0.82199097l0 0c-8.61676 12.643616 -32.869995 21.94667 -62.281494 23.889893c-29.411469 1.9432373 -58.708557 -3.8217316 -75.23386 -14.804199l0 0c-20.256561 5.4132996 -44.562744 6.972687 -67.43555 4.3264313c-22.872833 -2.6462708 -42.38559 -9.275299 -54.136627 -18.391708l0 0c-20.699646 1.0734711 -40.71335 -3.6792908 -50.108368 -11.899536c-9.39505 -8.220245 -6.171417 -18.158066 8.070984 -24.881363l0 0c-18.4646 -4.8162384 -27.886383 -14.373268 -23.352203 -23.68747c4.5341797 -9.314201 21.996826 -16.274933 43.28189 -17.252457z" fill-rule="evenodd"/><path stroke="#000000" stroke-width="1.0" stroke-linejoin="round" stroke-linecap="butt" d="m299.77487 124.68765l0 0c8.713501 2.2727966 18.779663 3.3037949 28.846893 2.9545593m13.185944 33.82715c4.3292847 -0.22451782 8.572784 -0.6999512 12.621124 -1.4140625m108.94498 15.47876c-3.0449219 -2.0236359 -5.5942993 -4.1860504 -7.6046753 -6.450409m145.12527 -2.635666l0 0c1.5709839 -2.3051147 2.5888062 -4.677582 3.03656 -7.07782m97.723816 -17.426025c0.20367432 -11.239365 -14.20105 -21.530243 -37.026917 -26.4524m87.29321 -28.201172c-3.6965332 3.8272095 -9.339783 7.2222824 -16.487244 9.919014m-23.370483 -46.55986l0 0c0.6298218 1.5455132 0.9213257 3.1142578 0.87042236 4.68449m-97.49695 -16.157925l0 0c-3.453125 1.8007088 -6.2980957 3.812973 -8.446228 5.974144m-75.56256 -2.4487038l0 0c-1.84021 1.6355667 -3.2143555 3.3662796 -4.0907593 5.1522675m-92.14859 1.409275l0 0c5.372925 1.3945427 10.343567 3.0730286 14.802826 4.998577m-129.8778 28.987995l0 0c0.5466919 1.7804565 1.410492 3.538971 2.583313 5.2590714" fill-rule="evenodd"/></g></svg>