<svg version="1.1" viewBox="0.0 0.0 960.0 720.0" fill="none" stroke="none" stroke-linecap="square" stroke-miterlimit="10" xmlns:xlink="http://www.w3.org/1999/xlink" xmlns="http://www.w3.org/2000/svg"><clipPath id="p.0"><path d="m0 0l960.0 0l0 720.0l-960.0 0l0 -720.0z" clip-rule="nonzero"/></clipPath><g clip-path="url(#p.0)"><path fill="#000000" fill-opacity="0.0" d="m0 0l960.0 0l0 720.0l-960.0 0z" fill-rule="evenodd"/><path fill="#000000" d="m601.22754 141.68182l-86.20477 145.07086l-12.251953 -7.307068l86.20471 -145.07088z" fill-rule="evenodd"/><path stroke="#ffffff" stroke-width="8.0" stroke-linejoin="round" stroke-linecap="butt" d="m601.22754 141.68182l-86.20477 145.07086l-12.251953 -7.307068l86.20471 -145.07088z" fill-rule="evenodd"/><path fill="#000000" d="m380.1863 120.94755l88.53543 143.62207l-12.157471 7.496063l-88.53543 -143.62206z" fill-rule="evenodd"/><path stroke="#ffffff" stroke-width="8.0" stroke-linejoin="round" stroke-linecap="butt" d="m380.1863 120.94755l88.53543 143.62207l-12.157471 7.496063l-88.53543 -143.62206z" fill-rule="evenodd"/><path fill="#000000" d="m457.88452 97.19685l64.06299 0l0 575.2441l-64.06299 0z" fill-rule="evenodd"/><path stroke="#ffffff" stroke-width="8.0" stroke-linejoin="round" stroke-linecap="butt" d="m457.88452 97.19685l64.06299 0l0 575.2441l-64.06299 0z" fill-rule="evenodd"/><path fill="#000000" d="m330.7349 120.25459l318.3622 0l0 28.18898l-318.3622 0z" fill-rule="evenodd"/><path stroke="#ffffff" stroke-width="8.0" stroke-linejoin="round" stroke-linecap="butt" d="m330.7349 120.25459l318.3622 0l0 28.18898l-318.3622 0z" fill-rule="evenodd"/><path fill="#000000" d="m330.7349 190.06299l318.3622 0l0 28.18898l-318.3622 0z" fill-rule="evenodd"/><path stroke="#ffffff" stroke-width="8.0" stroke-linejoin="round" stroke-linecap="butt" d="m330.7349 190.06299l318.3622 0l0 28.18898l-318.3622 0z" fill-rule="evenodd"/><path fill="#000000" d="m354.5782 113.20332l10.330719 0l0 5.7637787l-10.330719 0z" fill-rule="evenodd"/><path stroke="#ffffff" stroke-width="3.0" stroke-linejoin="round" stroke-linecap="butt" d="m354.5782 113.20332l10.330719 0l0 5.7637787l-10.330719 0z" fill-rule="evenodd"/><path fill="#000000" d="m351.41995 104.55555l16.661407 0l0 8.0l-16.661407 0z" fill-rule="evenodd"/><path stroke="#ffffff" stroke-width="3.0" stroke-linejoin="round" stroke-linecap="butt" d="m351.41995 104.55555l16.661407 0l0 8.0l-16.661407 0z" fill-rule="evenodd"/><path fill="#000000" d="m351.41995 96.54996l16.661407 0l0 8.0l-16.661407 0z" fill-rule="evenodd"/><path stroke="#ffffff" stroke-width="3.0" stroke-linejoin="round" stroke-linecap="butt" d="m351.41995 96.54996l16.661407 0l0 8.0l-16.661407 0z" fill-rule="evenodd"/><path fill="#000000" d="m354.5782 90.78215l10.330719 0l0 5.7637787l-10.330719 0z" fill-rule="evenodd"/><path stroke="#ffffff" stroke-width="3.0" stroke-linejoin="round" stroke-linecap="butt" d="m354.5782 90.78215l10.330719 0l0 5.7637787l-10.330719 0z" fill-rule="evenodd"/><path fill="#000000" d="m394.5782 113.20332l10.330719 0l0 5.7637787l-10.330719 0z" fill-rule="evenodd"/><path stroke="#ffffff" stroke-width="3.0" stroke-linejoin="round" stroke-linecap="butt" d="m394.5782 113.20332l10.330719 0l0 5.7637787l-10.330719 0z" fill-rule="evenodd"/><path fill="#000000" d="m391.41995 104.55555l16.661407 0l0 8.0l-16.661407 0z" fill-rule="evenodd"/><path stroke="#ffffff" stroke-width="3.0" stroke-linejoin="round" stroke-linecap="butt" d="m391.41995 104.55555l16.661407 0l0 8.0l-16.661407 0z" fill-rule="evenodd"/><path fill="#000000" d="m391.41995 96.54996l16.661407 0l0 8.0l-16.661407 0z" fill-rule="evenodd"/><path stroke="#ffffff" stroke-width="3.0" stroke-linejoin="round" stroke-linecap="butt" d="m391.41995 96.54996l16.661407 0l0 8.0l-16.661407 0z" fill-rule="evenodd"/><path fill="#000000" d="m394.5782 90.78215l10.330719 0l0 5.7637787l-10.330719 0z" fill-rule="evenodd"/><path stroke="#ffffff" stroke-width="3.0" stroke-linejoin="round" stroke-linecap="butt" d="m394.5782 90.78215l10.330719 0l0 5.7637787l-10.330719 0z" fill-rule="evenodd"/><path fill="#000000" d="m578.5782 113.20332l10.330688 0l0 5.7637787l-10.330688 0z" fill-rule="evenodd"/><path stroke="#ffffff" stroke-width="3.0" stroke-linejoin="round" stroke-linecap="butt" d="m578.5782 113.20332l10.330688 0l0 5.7637787l-10.330688 0z" fill-rule="evenodd"/><path fill="#000000" d="m575.4199 104.55555l16.661438 0l0 8.0l-16.661438 0z" fill-rule="evenodd"/><path stroke="#ffffff" stroke-width="3.0" stroke-linejoin="round" stroke-linecap="butt" d="m575.4199 104.55555l16.661438 0l0 8.0l-16.661438 0z" fill-rule="evenodd"/><path fill="#000000" d="m575.4199 96.54996l16.661438 0l0 8.0l-16.661438 0z" fill-rule="evenodd"/><path stroke="#ffffff" stroke-width="3.0" stroke-linejoin="round" stroke-linecap="butt" d="m575.4199 96.54996l16.661438 0l0 8.0l-16.661438 0z" fill-rule="evenodd"/><path fill="#000000" d="m578.5782 90.78215l10.330688 0l0 5.7637787l-10.330688 0z" fill-rule="evenodd"/><path stroke="#ffffff" stroke-width="3.0" stroke-linejoin="round" stroke-linecap="butt" d="m578.5782 90.78215l10.330688 0l0 5.7637787l-10.330688 0z" fill-rule="evenodd"/><path fill="#000000" d="m618.5782 113.20332l10.330688 0l0 5.7637787l-10.330688 0z" fill-rule="evenodd"/><path stroke="#ffffff" stroke-width="3.0" stroke-linejoin="round" stroke-linecap="butt" d="m618.5782 113.20332l10.330688 0l0 5.7637787l-10.330688 0z" fill-rule="evenodd"/><path fill="#000000" d="m615.4199 104.55555l16.661438 0l0 8.0l-16.661438 0z" fill-rule="evenodd"/><path stroke="#ffffff" stroke-width="3.0" stroke-linejoin="round" stroke-linecap="butt" d="m615.4199 104.55555l16.661438 0l0 8.0l-16.661438 0z" fill-rule="evenodd"/><path fill="#000000" d="m615.4199 96.54996l16.661438 0l0 8.0l-16.661438 0z" fill-rule="evenodd"/><path stroke="#ffffff" stroke-width="3.0" stroke-linejoin="round" stroke-linecap="butt" d="m615.4199 96.54996l16.661438 0l0 8.0l-16.661438 0z" fill-rule="evenodd"/><path fill="#000000" d="m618.5782 90.78215l10.330688 0l0 5.7637787l-10.330688 0z" fill-rule="evenodd"/><path stroke="#ffffff" stroke-width="3.0" stroke-linejoin="round" stroke-linecap="butt" d="m618.5782 90.78215l10.330688 0l0 5.7637787l-10.330688 0z" fill-rule="evenodd"/></g></svg>